<svg width="24" height="24" viewBox="0 0 24 24" fill="none" xmlns="http://www.w3.org/2000/svg">
<circle cx="18.5" cy="18.5" r="5.5" fill="#ECF1F4"/>
<path d="M20.5009 8.28998L15.7065 3.49561C15.3902 3.17926 14.9613 3 14.5149 3H9.48506C9.03866 3 8.60984 3.17926 8.2935 3.49561L3.49561 8.28998C3.17926 8.60633 3 9.03515 3 9.48155V14.5114C3 14.9578 3.17926 15.3866 3.49561 15.703L8.2935 20.5009C8.60984 20.8172 9.03866 20.9965 9.48506 20.9965H14.5149C14.9613 20.9965 15.3902 20.8172 15.7065 20.5009L20.5044 15.703C20.8207 15.3866 21 14.9578 21 14.5114V9.48506C20.9965 9.03515 20.8172 8.60633 20.5009 8.28998ZM19.3093 14.5114L14.5114 19.3093H9.48506L4.68717 14.5114V9.48506L9.48506 4.68717H14.5149L19.3093 9.48506V14.5114ZM15.5765 14.7821L14.7821 15.5765C14.6169 15.7417 14.3497 15.7417 14.1845 15.5765L11.9982 13.3902L9.81195 15.5765C9.64675 15.7417 9.37961 15.7417 9.21441 15.5765L8.42004 14.7821C8.25483 14.6169 8.25483 14.3497 8.42004 14.1845L10.6063 11.9982L8.42004 9.81195C8.25483 9.64675 8.25483 9.37961 8.42004 9.21441L9.21441 8.42004C9.37961 8.25483 9.64675 8.25483 9.81195 8.42004L11.9982 10.6063L14.1845 8.42004C14.3497 8.25483 14.6169 8.25483 14.7821 8.42004L15.5765 9.21441C15.7417 9.37961 15.7417 9.64675 15.5765 9.81195L13.3902 11.9982L15.5765 14.1845C15.7417 14.3497 15.7417 14.6169 15.5765 14.7821Z" fill="#FF1C1C"/>
</svg>
