<svg width="18" height="16" viewBox="0 0 18 16" fill="none" xmlns="http://www.w3.org/2000/svg">
<path d="M12.57 10.7789L13.5699 9.77904C13.7261 9.62281 13.9979 9.73217 13.9979 9.95714V14.5002C13.9979 15.3282 13.3262 16 12.4982 16H1.49978C0.671777 16 0 15.3282 0 14.5002V3.50183C0 2.67383 0.671777 2.00205 1.49978 2.00205H10.0454C10.2672 2.00205 10.3797 2.27076 10.2235 2.43011L9.22365 3.42997C9.17678 3.47683 9.11429 3.50183 9.04555 3.50183H1.49978V14.5002H12.4982V10.9539C12.4982 10.8882 12.5232 10.8258 12.57 10.7789ZM17.4631 4.47356L9.25802 12.6786L6.43343 12.9911C5.6148 13.0817 4.91803 12.3912 5.00864 11.5663L5.3211 8.74169L13.5261 0.53664C14.2417 -0.17888 15.3977 -0.17888 16.1101 0.53664L17.4599 1.88644C18.1755 2.60196 18.1755 3.76117 17.4631 4.47356ZM14.376 5.43905L12.5607 3.62369L6.75526 9.43221L6.52717 11.4725L8.5675 11.2444L14.376 5.43905ZM16.4007 2.94879L15.0509 1.59898C14.9228 1.47088 14.7135 1.47088 14.5885 1.59898L13.623 2.56447L15.4384 4.37983L16.4038 3.41434C16.5288 3.28311 16.5288 3.07689 16.4007 2.94879Z" fill="#262730"/>
</svg>
