<svg width="24" height="24" viewBox="0 0 24 24" fill="none" xmlns="http://www.w3.org/2000/svg">
<path d="M19.3583 11.5747L20.5506 10.8864C20.9035 10.6826 21.0747 10.267 20.9691 9.87336C20.5421 8.28084 19.7019 6.85737 18.5705 5.7247C18.283 5.43683 17.8376 5.37849 17.4852 5.582L16.2951 6.26939C15.9084 5.99271 15.4959 5.7542 15.0632 5.55721V4.18104C15.0632 3.98282 14.9977 3.79017 14.8769 3.63303C14.756 3.47589 14.5867 3.36307 14.3951 3.31212C12.8314 2.89623 11.1706 2.8957 9.60494 3.31208C9.21107 3.41685 8.9368 3.77343 8.9368 4.181V5.55717C8.50411 5.75416 8.09155 5.99268 7.70493 6.26936L6.51478 5.58196C6.16243 5.37845 5.71704 5.43679 5.42947 5.72466C4.29807 6.85734 3.4579 8.28076 3.0309 9.87332C2.92534 10.2669 3.09646 10.6826 3.44941 10.8863L4.64173 11.5747C4.59605 12.0478 4.59605 12.5243 4.64173 12.9975L3.44941 13.6858C3.09646 13.8895 2.92534 14.3052 3.0309 14.6988C3.4579 16.2913 4.29807 17.7148 5.42947 18.8474C5.71704 19.1353 6.16243 19.1937 6.51478 18.9901L7.70493 18.3028C8.09154 18.5794 8.5041 18.8179 8.9368 19.0149V20.3911C8.93682 20.5893 9.00233 20.7819 9.12315 20.9391C9.24397 21.0962 9.41332 21.209 9.60487 21.26C11.1686 21.6759 12.8294 21.6764 14.3951 21.26C14.7889 21.1553 15.0632 20.7987 15.0632 20.3911V19.0149C15.4959 18.8179 15.9084 18.5794 16.2951 18.3028L17.4852 18.9902C17.8376 19.1937 18.283 19.1354 18.5705 18.8475C19.7019 17.7148 20.5421 16.2913 20.9691 14.6988C21.0747 14.3052 20.9035 13.8895 20.5506 13.6858L19.3583 12.9975C19.404 12.5239 19.404 12.0483 19.3583 11.5747ZM17.3858 13.9343L19.0265 14.8812C18.7314 15.6783 18.3028 16.4194 17.7591 17.0728L16.118 16.1251C14.9204 17.1509 14.7453 17.2513 13.2659 17.7737V19.6683C12.428 19.8114 11.572 19.8114 10.7341 19.6683V17.7737C9.25488 17.2514 9.0792 17.1506 7.88204 16.1251L6.24092 17.0728C5.69722 16.4194 5.26863 15.6783 4.97348 14.8812L6.61423 13.9343C6.32854 12.3879 6.32839 12.185 6.61423 10.6379L4.97348 9.69093C5.26741 8.89604 5.69652 8.1539 6.24092 7.49938L7.88204 8.44705C9.07964 7.4212 9.25473 7.32082 10.7341 6.79844V4.90385C11.572 4.76082 12.428 4.76082 13.2659 4.90385V6.79847C14.7451 7.32082 14.9208 7.42161 16.118 8.44709L17.7591 7.49942C18.3028 8.15278 18.7314 8.89386 19.0265 9.69097L17.3858 10.6379C17.6715 12.1843 17.6716 12.3872 17.3858 13.9343ZM12 8.69148C10.0179 8.69148 8.40539 10.304 8.40539 12.2861C8.40539 14.2682 10.0179 15.8807 12 15.8807C13.9821 15.8807 15.5946 14.2682 15.5946 12.2861C15.5946 10.304 13.9821 8.69148 12 8.69148ZM12 14.0834C11.0089 14.0834 10.2027 13.2772 10.2027 12.2861C10.2027 11.2951 11.0089 10.4888 12 10.4888C12.9911 10.4888 13.7973 11.2951 13.7973 12.2861C13.7973 13.2772 12.9911 14.0834 12 14.0834Z" fill="#485572"/>
</svg>

